<svg version="1.2" xmlns="http://www.w3.org/2000/svg" viewBox="0 0 22 22" width="22" height="22"><defs><clipPath clipPathUnits="userSpaceOnUse" id="cp1"><path d="m-1321-361h1920v2057h-1920z"/></clipPath></defs><style></style><g clip-path="url(#cp1)"><path fill-rule="evenodd" d="m18.3 3.6c1.9 2 3 4.6 3 7.4 0 5.8-4.7 10.4-10.4 10.4-5.8 0-10.5-4.6-10.5-10.4 0-5.8 4.7-10.4 10.5-10.4 2.7-0.1 5.4 1 7.4 3zm-16 7.4c0 4.7 3.8 8.5 8.6 8.5 4.7 0 8.5-3.8 8.5-8.5 0-4.7-3.8-8.5-8.5-8.5-4.7 0-8.6 3.8-8.6 8.5z"/><path  d="m15.6 14.8q-0.2 0-0.5-0.1l-5.2-3.2v-5.2c0-0.6 0.4-1 1-1 0.5 0 0.9 0.4 0.9 1v4.2l4.3 2.5q0.3 0.2 0.4 0.6 0.1 0.4-0.1 0.7c-0.1 0.3-0.4 0.5-0.8 0.5z"/></g></svg>