<svg xmlns="http://www.w3.org/2000/svg" width="29.378" height="38.711" viewBox="0 0 29.378 38.711">
  <g id="doc" transform="translate(-27.5 -137.5)">
    <path id="Path_52" data-name="Path 52" d="M20.838,3H9.3A3.442,3.442,0,0,0,6,6.571V35.14a3.442,3.442,0,0,0,3.3,3.571H29.081a3.442,3.442,0,0,0,3.3-3.571V15.5Z" transform="translate(23 136)" fill="none" stroke="#486cc2" stroke-linecap="round" stroke-linejoin="round" stroke-width="3"/>
    <path id="Path_53" data-name="Path 53" d="M19.5,3V15.5H32" transform="translate(23.379 136)" fill="none" stroke="#486cc2" stroke-linecap="round" stroke-linejoin="round" stroke-width="3"/>
    <path id="Path_55" data-name="Path 55" d="M3.619,0h8.2c2,0,9.825,6.935,9.825,8.934l.072,20.019A3.619,3.619,0,0,1,18.1,32.572H3.619A3.619,3.619,0,0,1,0,28.953V3.619A3.619,3.619,0,0,1,3.619,0Z" transform="translate(34.067 142.379)" fill="#486cc2" opacity="0.3"/>
    <path id="Path_938" data-name="Path 938" d="M1.555-4.163V-.875h.971A1.048,1.048,0,0,0,3.565-1.61a2.592,2.592,0,0,0,.161-.96,2.364,2.364,0,0,0-.241-1.181,1.017,1.017,0,0,0-.959-.412ZM2.7-5.038a2.648,2.648,0,0,1,.779.109,1.663,1.663,0,0,1,.858.639,2.242,2.242,0,0,1,.359.813,3.905,3.905,0,0,1,.1.834,3.349,3.349,0,0,1-.4,1.7A1.82,1.82,0,0,1,2.7,0H.533V-5.038ZM8.167-.752a1.2,1.2,0,0,0,.993-.461,2.062,2.062,0,0,0,.367-1.312A2.063,2.063,0,0,0,9.16-3.837,1.2,1.2,0,0,0,8.167-4.3a1.217,1.217,0,0,0-1,.461A2.042,2.042,0,0,0,6.8-2.526a2.042,2.042,0,0,0,.373,1.313A1.217,1.217,0,0,0,8.167-.752ZM10.58-2.526A2.725,2.725,0,0,1,9.818-.448,2.2,2.2,0,0,1,8.167.14,2.2,2.2,0,0,1,6.516-.448,2.718,2.718,0,0,1,5.75-2.526,2.664,2.664,0,0,1,6.516-4.6a2.2,2.2,0,0,1,1.651-.588A2.2,2.2,0,0,1,9.818-4.6,2.671,2.671,0,0,1,10.58-2.526Zm.934.048a2.767,2.767,0,0,1,.708-2.034,2.108,2.108,0,0,1,1.565-.622,2.117,2.117,0,0,1,1.859.834A1.805,1.805,0,0,1,16-3.36H14.943a1.422,1.422,0,0,0-.263-.547,1.07,1.07,0,0,0-.851-.328,1.055,1.055,0,0,0-.906.463,2.226,2.226,0,0,0-.332,1.311,1.954,1.954,0,0,0,.35,1.27,1.107,1.107,0,0,0,.89.422,1.018,1.018,0,0,0,.844-.362,1.574,1.574,0,0,0,.267-.584h1.042a2.261,2.261,0,0,1-.7,1.34A2.047,2.047,0,0,1,13.846.14a2.173,2.173,0,0,1-1.709-.7A2.791,2.791,0,0,1,11.514-2.478Z" transform="translate(32.619 165.474)" fill="#486cc2"/>
  </g>
</svg>
