<svg version="1.2" xmlns="http://www.w3.org/2000/svg" viewBox="0 0 45 34" width="45" height="34"><defs><clipPath clipPathUnits="userSpaceOnUse" id="cp1"><path d="m-91-1263h1920v2011h-1920z"/></clipPath></defs><style>.a{fill:none}.b{fill:#7e9c3c}</style><g clip-path="url(#cp1)"><path class="a" d="m18.8 6.3h25.4v25.5h-25.4z"/><path class="b" d="m4 5h37c1.7 0 3 1.3 3 3v23c0 1.7-1.3 3-3 3h-37c-1.7 0-3-1.3-3-3v-23c0-1.7 1.3-3 3-3z"/><path class="b" d="m9 1h27c1.1 0 2 0.9 2 2v1h-31v-1c0-1.1 0.9-2 2-2z"/></g></svg>