<svg xmlns="http://www.w3.org/2000/svg" width="29.239" height="38.523" viewBox="0 0 29.239 38.523">
  <g id="gif" transform="translate(-1013.5 -529.832)">
    <path id="Path_55" data-name="Path 55" d="M3.6,0h8.155c1.988,0,9.774,6.9,9.774,8.887L21.6,28.8A3.6,3.6,0,0,1,18,32.4H3.6A3.6,3.6,0,0,1,0,28.8V3.6A3.6,3.6,0,0,1,3.6,0Z" transform="translate(1020.04 534.693)" fill="#e2c909" opacity="0.3"/>
    <path id="Path_52" data-name="Path 52" d="M20.76,3H9.28A3.424,3.424,0,0,0,6,6.552V34.971a3.424,3.424,0,0,0,3.28,3.552H28.959a3.424,3.424,0,0,0,3.28-3.552V15.433Z" transform="translate(1009 528.332)" fill="none" stroke="#e2c909" stroke-linecap="round" stroke-linejoin="round" stroke-width="3"/>
    <path id="Path_53" data-name="Path 53" d="M19.5,3V15.433H31.933" transform="translate(1009.306 528.332)" fill="none" stroke="#e2c909" stroke-linecap="round" stroke-linejoin="round" stroke-width="3"/>
    <path id="Path_947" data-name="Path 947" d="M-2.525-.141A2.2,2.2,0,0,1-3.7.152,2.435,2.435,0,0,1-5.572-.641a3.024,3.024,0,0,1-.762-2.18,3.2,3.2,0,0,1,.77-2.242,2.622,2.622,0,0,1,2.035-.844,2.66,2.66,0,0,1,1.764.557A2.07,2.07,0,0,1-1-3.961H-2.186a1.127,1.127,0,0,0-.668-.824,1.641,1.641,0,0,0-.66-.129,1.434,1.434,0,0,0-1.143.525A2.388,2.388,0,0,0-5.1-2.809a1.963,1.963,0,0,0,.484,1.5,1.591,1.591,0,0,0,1.1.441,1.423,1.423,0,0,0,.992-.35,1.511,1.511,0,0,0,.477-.916H-3.381V-3.09h2.4V0h-.8L-1.9-.719A2.759,2.759,0,0,1-2.525-.141Zm2.6-5.617h1.2V0H.072Zm6.4,1.02H3.584v1.324H6.111v1H3.584V0h-1.2V-5.75H6.471Z" transform="translate(1029 558.332)" fill="#d3a610"/>
  </g>
</svg>
