<svg version="1.2" xmlns="http://www.w3.org/2000/svg" viewBox="0 0 24 25" width="24" height="25"><defs><clipPath clipPathUnits="userSpaceOnUse" id="cp1"><path d="m-1812-359h1920v2057h-1920z"/></clipPath></defs><style>.a{fill:none;stroke:#000;stroke-linecap:round;stroke-miterlimit:100;stroke-width:3}</style><g clip-path="url(#cp1)"><path class="a" d="m10.9 3.3c0.3-0.9 1.5-0.9 1.8 0l1.9 5.7c0.2 0.3 0.5 0.6 0.9 0.6h4.8c0.9 0 1.3 1.1 0.6 1.7l-3.4 3.2c-0.3 0.3-0.4 0.7-0.3 1.1l1.2 5.6c0.3 0.9-0.6 1.7-1.4 1.1l-4.7-3.1c-0.3-0.2-0.7-0.2-1.1 0l-4.6 3.1c-0.8 0.6-1.8-0.2-1.5-1.1l1.3-5.6c0.1-0.4 0-0.8-0.3-1.1l-3.4-3.2c-0.8-0.6-0.4-1.7 0.5-1.7h4.9c0.4 0 0.7-0.3 0.8-0.6 0 0 2-5.7 2-5.7z"/></g></svg>