<svg version="1.2" xmlns="http://www.w3.org/2000/svg" viewBox="0 0 12 13" width="12" height="13"><defs><clipPath clipPathUnits="userSpaceOnUse" id="cp1"><path d="m-118-654h1920v2057h-1920z"/></clipPath></defs><style>.a{fill:#4e4e4e}</style><g clip-path="url(#cp1)"><path class="a" d="m6.9 0.8q-0.2 0-0.4 0.2-0.2 0.2-0.1 0.4c0 0.3 0.3 0.5 0.6 0.5h2.6l-3.6 3.6c-0.2 0.2-0.2 0.5 0 0.8q0.1 0.2 0.4 0.2 0.2 0 0.4-0.2l3.6-3.6v2.6c0 0.3 0.2 0.6 0.4 0.6q0.3 0 0.5-0.1 0.2-0.2 0.2-0.5v-3.9c0-0.3-0.3-0.6-0.6-0.6z"/><path class="a" d="m10.8 8.2c-0.2 0-0.4 0.3-0.4 0.6v2.2h-9.1v-9.1h2.2q0.3 0 0.5-0.2 0.1-0.2 0.1-0.4c0-0.3-0.3-0.5-0.6-0.5h-2.8c-0.3 0-0.6 0.3-0.6 0.6v10.2c0 0.3 0.3 0.6 0.6 0.6h10.2c0.3 0 0.6-0.3 0.6-0.6v-2.9q0-0.2-0.2-0.4-0.2-0.2-0.5-0.1z"/></g></svg>