<svg version="1.2" xmlns="http://www.w3.org/2000/svg" viewBox="0 0 23 30" width="23" height="30"><defs><clipPath clipPathUnits="userSpaceOnUse" id="cp1"><path d="m-1814-725h1920v2057h-1920z"/></clipPath></defs><style>.a{fill:none;stroke:#000;stroke-miterlimit:100;stroke-width:2.3}.b{fill:none;stroke:#000;stroke-linecap:round;stroke-miterlimit:100;stroke-width:2.3}</style><g clip-path="url(#cp1)"><path class="a" d="m18.6 14v10.9c0 1.5-1.1 2.7-2.4 2.7h-11.2c-1.4 0-2.4-1.2-2.4-2.7v-17.9c0-1.5 1-2.7 2.4-2.7h4.9c0.4 0 0.8 0.2 1.1 0.5l7.1 7.9c0.3 0.4 0.5 0.8 0.5 1.3z"/><path fill-rule="evenodd" class="b" d="m10.6 4.8v6.7c0 1 0.7 1.8 1.6 1.8h6m-11.6 4.4h8m-8 4.5h8"/></g></svg>