<svg xmlns="http://www.w3.org/2000/svg" width="29.239" height="38.523" viewBox="0 0 29.239 38.523">
  <g id="jpg" transform="translate(-1013.5 -529.832)">
    <path id="Path_55" data-name="Path 55" d="M3.6,0h8.155c1.988,0,9.774,6.9,9.774,8.887L21.6,28.8A3.6,3.6,0,0,1,18,32.4H3.6A3.6,3.6,0,0,1,0,28.8V3.6A3.6,3.6,0,0,1,3.6,0Z" transform="translate(1020.04 534.693)" fill="#008dfd" opacity="0.3"/>
    <path id="Path_52" data-name="Path 52" d="M20.76,3H9.28A3.424,3.424,0,0,0,6,6.552V34.971a3.424,3.424,0,0,0,3.28,3.552H28.959a3.424,3.424,0,0,0,3.28-3.552V15.433Z" transform="translate(1009 528.332)" fill="none" stroke="#008dfd" stroke-linecap="round" stroke-linejoin="round" stroke-width="3"/>
    <path id="Path_53" data-name="Path 53" d="M19.5,3V15.433H31.933" transform="translate(1009.306 528.332)" fill="none" stroke="#008dfd" stroke-linecap="round" stroke-linejoin="round" stroke-width="3"/>
    <path id="Path_940" data-name="Path 940" d="M1.313-2.184v.133a2.507,2.507,0,0,0,.146.939A.558.558,0,0,0,2.02-.84a.555.555,0,0,0,.563-.3,1.528,1.528,0,0,0,.082-.594V-5.758h1.2V-1.75A2.284,2.284,0,0,1,3.613-.586,1.649,1.649,0,0,1,2.063.141a1.669,1.669,0,0,1-1.5-.588,2.913,2.913,0,0,1-.383-1.6v-.133ZM8.7-3.926a.779.779,0,0,0-.236-.641A1.026,1.026,0,0,0,7.8-4.758H6.681v1.7H7.8a.972.972,0,0,0,.662-.207A.829.829,0,0,0,8.7-3.926Zm1.191-.008a1.767,1.767,0,0,1-.516,1.441A2.271,2.271,0,0,1,7.9-2.07H6.681V0h-1.2V-5.758H7.994a2.043,2.043,0,0,1,1.383.445A1.725,1.725,0,0,1,9.892-3.934Zm5.173-.027a1.127,1.127,0,0,0-.668-.824,1.641,1.641,0,0,0-.66-.129,1.434,1.434,0,0,0-1.143.525,2.388,2.388,0,0,0-.447,1.58,1.963,1.963,0,0,0,.484,1.5,1.591,1.591,0,0,0,1.1.441,1.423,1.423,0,0,0,.992-.35,1.511,1.511,0,0,0,.477-.916H13.87V-3.09h2.4V0h-.8l-.121-.719a2.759,2.759,0,0,1-.625.578,2.2,2.2,0,0,1-1.172.293,2.435,2.435,0,0,1-1.875-.793,3.024,3.024,0,0,1-.762-2.18,3.2,3.2,0,0,1,.77-2.242,2.622,2.622,0,0,1,2.035-.844,2.66,2.66,0,0,1,1.764.557,2.07,2.07,0,0,1,.764,1.389Z" transform="translate(1020.04 558.693)" fill="#008dfd"/>
  </g>
</svg>
