<svg xmlns="http://www.w3.org/2000/svg" width="29.239" height="38.523" viewBox="0 0 29.239 38.523">
  <g id="others" transform="translate(-1013.5 -529.832)">
    <path id="Path_55" data-name="Path 55" d="M3.6,0h8.155c1.988,0,9.774,6.9,9.774,8.887L21.6,28.8A3.6,3.6,0,0,1,18,32.4H3.6A3.6,3.6,0,0,1,0,28.8V3.6A3.6,3.6,0,0,1,3.6,0Z" transform="translate(1020.04 534.693)" fill="#4a6083" opacity="0.3"/>
    <path id="Path_52" data-name="Path 52" d="M20.76,3H9.28A3.424,3.424,0,0,0,6,6.552V34.971a3.424,3.424,0,0,0,3.28,3.552H28.959a3.424,3.424,0,0,0,3.28-3.552V15.433Z" transform="translate(1009 528.332)" fill="none" stroke="#4c6182" stroke-linecap="round" stroke-linejoin="round" stroke-width="3"/>
    <path id="Path_53" data-name="Path 53" d="M19.5,3V15.433H31.933" transform="translate(1009.306 528.332)" fill="none" stroke="#4c6182" stroke-linecap="round" stroke-linejoin="round" stroke-width="3"/>
  </g>
</svg>
