<svg xmlns="http://www.w3.org/2000/svg" width="29.239" height="38.523" viewBox="0 0 29.239 38.523">
  <g id="png" transform="translate(-1013.5 -529.832)">
    <path id="Path_55" data-name="Path 55" d="M3.6,0h8.155c1.988,0,9.774,6.9,9.774,8.887L21.6,28.8A3.6,3.6,0,0,1,18,32.4H3.6A3.6,3.6,0,0,1,0,28.8V3.6A3.6,3.6,0,0,1,3.6,0Z" transform="translate(1020.04 534.693)" fill="#4b57c0" opacity="0.3"/>
    <path id="Path_52" data-name="Path 52" d="M20.76,3H9.28A3.424,3.424,0,0,0,6,6.552V34.971a3.424,3.424,0,0,0,3.28,3.552H28.959a3.424,3.424,0,0,0,3.28-3.552V15.433Z" transform="translate(1009 528.332)" fill="none" stroke="#4b57c0" stroke-linecap="round" stroke-linejoin="round" stroke-width="3"/>
    <path id="Path_53" data-name="Path 53" d="M19.5,3V15.433H31.933" transform="translate(1009.306 528.332)" fill="none" stroke="#4b57c0" stroke-linecap="round" stroke-linejoin="round" stroke-width="3"/>
    <path id="Path_939" data-name="Path 939" d="M3.852-3.926a.779.779,0,0,0-.236-.641,1.026,1.026,0,0,0-.662-.191H1.832v1.7H2.953a.972.972,0,0,0,.662-.207A.829.829,0,0,0,3.852-3.926Zm1.191-.008a1.767,1.767,0,0,1-.516,1.441,2.271,2.271,0,0,1-1.473.422H1.832V0H.637V-5.758H3.145a2.043,2.043,0,0,1,1.383.445A1.725,1.725,0,0,1,5.043-3.934ZM6.326-5.758H7.588L9.88-1.738v-4.02H11V0H9.8L7.447-4.09V0H6.326Zm10.068,1.8a1.127,1.127,0,0,0-.668-.824,1.641,1.641,0,0,0-.66-.129,1.434,1.434,0,0,0-1.143.525,2.388,2.388,0,0,0-.447,1.58,1.963,1.963,0,0,0,.484,1.5,1.591,1.591,0,0,0,1.1.441,1.423,1.423,0,0,0,.992-.35,1.511,1.511,0,0,0,.477-.916H15.2V-3.09h2.4V0h-.8l-.121-.719a2.759,2.759,0,0,1-.625.578,2.2,2.2,0,0,1-1.172.293,2.435,2.435,0,0,1-1.875-.793,3.024,3.024,0,0,1-.762-2.18,3.2,3.2,0,0,1,.77-2.242,2.622,2.622,0,0,1,2.035-.844,2.66,2.66,0,0,1,1.764.557,2.07,2.07,0,0,1,.764,1.389Z" transform="translate(1020.04 558.693)" fill="#4b57c0"/>
  </g>
</svg>
