<svg xmlns="http://www.w3.org/2000/svg" width="29.239" height="38.523" viewBox="0 0 29.239 38.523">
  <g id="ppt" transform="translate(-1013.5 -529.832)">
    <path id="Path_55" data-name="Path 55" d="M3.6,0h8.155c1.988,0,9.774,6.9,9.774,8.887L21.6,28.8A3.6,3.6,0,0,1,18,32.4H3.6A3.6,3.6,0,0,1,0,28.8V3.6A3.6,3.6,0,0,1,3.6,0Z" transform="translate(1020.04 534.693)" fill="#fa9627" opacity="0.3"/>
    <path id="Path_52" data-name="Path 52" d="M20.76,3H9.28A3.424,3.424,0,0,0,6,6.552V34.971a3.424,3.424,0,0,0,3.28,3.552H28.959a3.424,3.424,0,0,0,3.28-3.552V15.433Z" transform="translate(1009 528.332)" fill="none" stroke="#fa9627" stroke-linecap="round" stroke-linejoin="round" stroke-width="3"/>
    <path id="Path_53" data-name="Path 53" d="M19.5,3V15.433H31.933" transform="translate(1009.306 528.332)" fill="none" stroke="#fa9627" stroke-linecap="round" stroke-linejoin="round" stroke-width="3"/>
    <path id="Path_941" data-name="Path 941" d="M3.852-3.926a.779.779,0,0,0-.236-.641,1.026,1.026,0,0,0-.662-.191H1.832v1.7H2.953a.972.972,0,0,0,.662-.207A.829.829,0,0,0,3.852-3.926Zm1.191-.008a1.767,1.767,0,0,1-.516,1.441,2.271,2.271,0,0,1-1.473.422H1.832V0H.637V-5.758H3.145a2.043,2.043,0,0,1,1.383.445A1.725,1.725,0,0,1,5.043-3.934Zm4.545.008a.779.779,0,0,0-.236-.641,1.026,1.026,0,0,0-.662-.191H7.568v1.7H8.689a.972.972,0,0,0,.662-.207A.829.829,0,0,0,9.587-3.926Zm1.191-.008a1.767,1.767,0,0,1-.516,1.441,2.271,2.271,0,0,1-1.473.422H7.568V0h-1.2V-5.758H8.88a2.043,2.043,0,0,1,1.383.445A1.725,1.725,0,0,1,10.779-3.934Zm5.486-1.824v1.02H14.542V0H13.331V-4.738H11.6v-1.02Z" transform="translate(1020.04 558.693)" fill="#fa9627"/>
  </g>
</svg>
