<svg xmlns="http://www.w3.org/2000/svg" width="29.239" height="38.523" viewBox="0 0 29.239 38.523">
  <g id="pub" transform="translate(-1013.5 -529.832)">
    <path id="Path_55" data-name="Path 55" d="M3.6,0h8.155c1.988,0,9.774,6.9,9.774,8.887L21.6,28.8A3.6,3.6,0,0,1,18,32.4H3.6A3.6,3.6,0,0,1,0,28.8V3.6A3.6,3.6,0,0,1,3.6,0Z" transform="translate(1020.04 534.693)" fill="#8231c7" opacity="0.3"/>
    <path id="Path_52" data-name="Path 52" d="M20.76,3H9.28A3.424,3.424,0,0,0,6,6.552V34.971a3.424,3.424,0,0,0,3.28,3.552H28.959a3.424,3.424,0,0,0,3.28-3.552V15.433Z" transform="translate(1009 528.332)" fill="none" stroke="#8231c7" stroke-linecap="round" stroke-linejoin="round" stroke-width="3"/>
    <path id="Path_53" data-name="Path 53" d="M19.5,3V15.433H31.933" transform="translate(1009.306 528.332)" fill="none" stroke="#8231c7" stroke-linecap="round" stroke-linejoin="round" stroke-width="3"/>
    <path id="Path_946" data-name="Path 946" d="M3.055-2.07H1.832V0H.637V-5.758H3.145a2.043,2.043,0,0,1,1.383.445,1.725,1.725,0,0,1,.516,1.379,1.767,1.767,0,0,1-.516,1.441A2.271,2.271,0,0,1,3.055-2.07Zm.563-1.2a.833.833,0,0,0,.234-.656.779.779,0,0,0-.236-.641,1.026,1.026,0,0,0-.662-.191H1.832v1.7H2.953A.98.98,0,0,0,3.617-3.27ZM9.352-2.219V-5.758h1.223v3.539a2.964,2.964,0,0,1-.285,1.43A2.124,2.124,0,0,1,8.262.148,2.133,2.133,0,0,1,6.23-.789a2.964,2.964,0,0,1-.285-1.43V-5.758H7.168v3.539a2,2,0,0,0,.141.867.933.933,0,0,0,.953.484.93.93,0,0,0,.949-.484A2,2,0,0,0,9.352-2.219Zm5,2.219H11.742V-5.758h2.8a1.779,1.779,0,0,1,1.5.613,1.459,1.459,0,0,1,.266.879,1.285,1.285,0,0,1-.266.848,1.371,1.371,0,0,1-.437.328,1.284,1.284,0,0,1,.666.508,1.522,1.522,0,0,1,.225.844,1.677,1.677,0,0,1-.258.918,1.591,1.591,0,0,1-.41.453,1.6,1.6,0,0,1-.654.289A4.033,4.033,0,0,1,14.352,0Zm-.027-2.535H12.891V-1H14.3a1.388,1.388,0,0,0,.59-.1.723.723,0,0,0,.383-.719.617.617,0,0,0-.371-.617A1.487,1.487,0,0,0,14.324-2.535Zm.6-1.1a.539.539,0,0,0,.234-.5.515.515,0,0,0-.312-.531,2.212,2.212,0,0,0-.687-.09H12.891v1.27H14.3A1.177,1.177,0,0,0,14.922-3.633Z" transform="translate(1021 558.332)" fill="#8231c7"/>
  </g>
</svg>
