<svg xmlns="http://www.w3.org/2000/svg" width="29.239" height="38.523" viewBox="0 0 29.239 38.523">
  <g id="xls" transform="translate(-1013.5 -529.832)">
    <path id="Path_55" data-name="Path 55" d="M3.6,0h8.155c1.988,0,9.774,6.9,9.774,8.887L21.6,28.8A3.6,3.6,0,0,1,18,32.4H3.6A3.6,3.6,0,0,1,0,28.8V3.6A3.6,3.6,0,0,1,3.6,0Z" transform="translate(1020.04 534.693)" fill="#21ba5f" opacity="0.3"/>
    <path id="Path_52" data-name="Path 52" d="M20.76,3H9.28A3.424,3.424,0,0,0,6,6.552V34.971a3.424,3.424,0,0,0,3.28,3.552H28.959a3.424,3.424,0,0,0,3.28-3.552V15.433Z" transform="translate(1009 528.332)" fill="none" stroke="#21ba5f" stroke-linecap="round" stroke-linejoin="round" stroke-width="3"/>
    <path id="Path_53" data-name="Path 53" d="M19.5,3V15.433H31.933" transform="translate(1009.306 528.332)" fill="none" stroke="#21ba5f" stroke-linecap="round" stroke-linejoin="round" stroke-width="3"/>
    <path id="Path_942" data-name="Path 942" d="M1.527,0H.129L1.98-2.934.219-5.758H1.656L2.684-3.887,3.738-5.758H5.129L3.367-2.98,5.238,0H3.777L2.684-1.961ZM6.345-5.758h1.2v4.723H10.4V0H6.345ZM12.5-1.777a1.182,1.182,0,0,0,.215.59,1.236,1.236,0,0,0,1,.355,2.119,2.119,0,0,0,.691-.094.668.668,0,0,0,.5-.668.493.493,0,0,0-.25-.441,2.688,2.688,0,0,0-.785-.27l-.609-.137a3.851,3.851,0,0,1-1.242-.441,1.4,1.4,0,0,1-.582-1.246,1.664,1.664,0,0,1,.563-1.285,2.378,2.378,0,0,1,1.652-.512,2.512,2.512,0,0,1,1.553.482,1.722,1.722,0,0,1,.674,1.4H14.734a.826.826,0,0,0-.453-.738,1.52,1.52,0,0,0-.7-.145,1.305,1.305,0,0,0-.742.188.6.6,0,0,0-.277.523.5.5,0,0,0,.273.461,3.347,3.347,0,0,0,.75.238l.992.238a2.565,2.565,0,0,1,.984.418,1.408,1.408,0,0,1,.516,1.176,1.659,1.659,0,0,1-.6,1.311,2.529,2.529,0,0,1-1.705.521A2.766,2.766,0,0,1,12-.365a1.707,1.707,0,0,1-.645-1.412Z" transform="translate(1020.04 558.693)" fill="#21ba5f"/>
  </g>
</svg>
